<svg xmlns="http://www.w3.org/2000/svg" width="403" height="493" viewBox="0 0 403 493"><defs><style>.a{fill:#707070;stroke:#707070;}.b{stroke:none;}.c{fill:none;}</style></defs><g transform="translate(-632.144 -1957.015)"><g transform="translate(632.144 1957)"><g transform="translate(0 0)"><g class="a" transform="translate(0 0.015)"><ellipse class="b" cx="5.5" cy="4" rx="5.5" ry="4"/><ellipse class="c" cx="5.5" cy="4" rx="5" ry="3.5"/></g><g class="a" transform="translate(0 65.015)"><ellipse class="b" cx="5.5" cy="5" rx="5.5" ry="5"/><ellipse class="c" cx="5.5" cy="5" rx="5" ry="4.5"/></g><g class="a" transform="translate(0 147.015)"><ellipse class="b" cx="5.5" cy="4" rx="5.5" ry="4"/><ellipse class="c" cx="5.5" cy="4" rx="5" ry="3.5"/></g><g class="a" transform="translate(0 227.015)"><ellipse class="b" cx="5.5" cy="5" rx="5.5" ry="5"/><ellipse class="c" cx="5.5" cy="5" rx="5" ry="4.5"/></g></g><g transform="translate(131 0)"><g class="a" transform="translate(0 0.015)"><ellipse class="b" cx="6" cy="4" rx="6" ry="4"/><ellipse class="c" cx="6" cy="4" rx="5.5" ry="3.5"/></g><g class="a" transform="translate(0 65.015)"><ellipse class="b" cx="6" cy="5" rx="6" ry="5"/><ellipse class="c" cx="6" cy="5" rx="5.5" ry="4.5"/></g><g class="a" transform="translate(0 147.015)"><ellipse class="b" cx="6" cy="4" rx="6" ry="4"/><ellipse class="c" cx="6" cy="4" rx="5.5" ry="3.5"/></g><g class="a" transform="translate(0 227.015)"><ellipse class="b" cx="6" cy="5" rx="6" ry="5"/><ellipse class="c" cx="6" cy="5" rx="5.5" ry="4.5"/></g></g><g transform="translate(261 0)"><g class="a" transform="translate(0 0.015)"><ellipse class="b" cx="5.5" cy="4" rx="5.5" ry="4"/><ellipse class="c" cx="5.5" cy="4" rx="5" ry="3.5"/></g><g class="a" transform="translate(0 65.015)"><ellipse class="b" cx="5.5" cy="5" rx="5.5" ry="5"/><ellipse class="c" cx="5.5" cy="5" rx="5" ry="4.5"/></g><g class="a" transform="translate(0 147.015)"><ellipse class="b" cx="5.5" cy="4" rx="5.5" ry="4"/><ellipse class="c" cx="5.5" cy="4" rx="5" ry="3.5"/></g><g class="a" transform="translate(0 227.015)"><ellipse class="b" cx="5.5" cy="5" rx="5.5" ry="5"/><ellipse class="c" cx="5.5" cy="5" rx="5" ry="4.5"/></g></g><g transform="translate(392 0)"><g class="a" transform="translate(0 0.015)"><ellipse class="b" cx="5.5" cy="4" rx="5.5" ry="4"/><ellipse class="c" cx="5.5" cy="4" rx="5" ry="3.5"/></g><g class="a" transform="translate(0 65.015)"><ellipse class="b" cx="5.5" cy="5" rx="5.5" ry="5"/><ellipse class="c" cx="5.5" cy="5" rx="5" ry="4.5"/></g><g class="a" transform="translate(0 147.015)"><ellipse class="b" cx="5.5" cy="4" rx="5.5" ry="4"/><ellipse class="c" cx="5.5" cy="4" rx="5" ry="3.5"/></g><g class="a" transform="translate(0 227.015)"><ellipse class="b" cx="5.5" cy="5" rx="5.5" ry="5"/><ellipse class="c" cx="5.5" cy="5" rx="5" ry="4.5"/></g></g></g><g transform="translate(632.144 2229.015)"><g transform="translate(0 0)"><g class="a" transform="translate(0 0)"><ellipse class="b" cx="5.5" cy="4" rx="5.5" ry="4"/><ellipse class="c" cx="5.5" cy="4" rx="5" ry="3.5"/></g><g class="a" transform="translate(0 64)"><ellipse class="b" cx="5.5" cy="5" rx="5.5" ry="5"/><ellipse class="c" cx="5.5" cy="5" rx="5" ry="4.5"/></g><g class="a" transform="translate(0 129)"><ellipse class="b" cx="5.5" cy="5" rx="5.5" ry="5"/><ellipse class="c" cx="5.5" cy="5" rx="5" ry="4.5"/></g><g class="a" transform="translate(0 211)"><ellipse class="b" cx="5.5" cy="5" rx="5.5" ry="5"/><ellipse class="c" cx="5.5" cy="5" rx="5" ry="4.5"/></g></g><g transform="translate(131 0)"><g class="a" transform="translate(0 0)"><ellipse class="b" cx="6" cy="4" rx="6" ry="4"/><ellipse class="c" cx="6" cy="4" rx="5.5" ry="3.5"/></g><g class="a" transform="translate(0 64)"><ellipse class="b" cx="6" cy="5" rx="6" ry="5"/><ellipse class="c" cx="6" cy="5" rx="5.5" ry="4.5"/></g><g class="a" transform="translate(0 129)"><ellipse class="b" cx="6" cy="5" rx="6" ry="5"/><ellipse class="c" cx="6" cy="5" rx="5.5" ry="4.5"/></g><g class="a" transform="translate(0 211)"><ellipse class="b" cx="6" cy="5" rx="6" ry="5"/><ellipse class="c" cx="6" cy="5" rx="5.5" ry="4.5"/></g></g><g transform="translate(261 0)"><g class="a" transform="translate(0 0)"><ellipse class="b" cx="5.5" cy="4" rx="5.5" ry="4"/><ellipse class="c" cx="5.5" cy="4" rx="5" ry="3.5"/></g><g class="a" transform="translate(0 64)"><ellipse class="b" cx="5.5" cy="5" rx="5.5" ry="5"/><ellipse class="c" cx="5.5" cy="5" rx="5" ry="4.5"/></g><g class="a" transform="translate(0 129)"><ellipse class="b" cx="5.5" cy="5" rx="5.5" ry="5"/><ellipse class="c" cx="5.5" cy="5" rx="5" ry="4.5"/></g><g class="a" transform="translate(0 211)"><ellipse class="b" cx="5.5" cy="5" rx="5.5" ry="5"/><ellipse class="c" cx="5.5" cy="5" rx="5" ry="4.5"/></g></g><g transform="translate(392 0)"><g class="a" transform="translate(0 0)"><ellipse class="b" cx="5.5" cy="4" rx="5.5" ry="4"/><ellipse class="c" cx="5.5" cy="4" rx="5" ry="3.5"/></g><g class="a" transform="translate(0 64)"><ellipse class="b" cx="5.5" cy="5" rx="5.5" ry="5"/><ellipse class="c" cx="5.5" cy="5" rx="5" ry="4.5"/></g><g class="a" transform="translate(0 129)"><ellipse class="b" cx="5.5" cy="5" rx="5.5" ry="5"/><ellipse class="c" cx="5.5" cy="5" rx="5" ry="4.5"/></g><g class="a" transform="translate(0 211)"><ellipse class="b" cx="5.5" cy="5" rx="5.5" ry="5"/><ellipse class="c" cx="5.5" cy="5" rx="5" ry="4.5"/></g></g></g></g></svg>