<svg xmlns="http://www.w3.org/2000/svg" xmlns:xlink="http://www.w3.org/1999/xlink" width="600" zoomAndPan="magnify" viewBox="0 0 450 449.999984" height="600" preserveAspectRatio="xMidYMid meet" version="1.0"><defs><clipPath id="9bef54018e"><path d="M 33 32 L 417 32 L 417 417 L 33 417 Z M 33 32 " clip-rule="nonzero"/></clipPath><clipPath id="15882bab63"><path d="M 342.222656 32.949219 L 416.996094 342.03125 L 107.914062 416.808594 L 33.136719 107.726562 Z M 342.222656 32.949219 " clip-rule="nonzero"/></clipPath><clipPath id="311cb980ea"><path d="M 342.222656 32.949219 L 417.042969 342.214844 L 107.777344 417.035156 L 32.957031 107.769531 Z M 342.222656 32.949219 " clip-rule="nonzero"/></clipPath></defs><g clip-path="url(#9bef54018e)"><g clip-path="url(#15882bab63)"><g clip-path="url(#311cb980ea)"><path stroke-linecap="butt" transform="matrix(0.176359, 0.72897, -0.72897, 0.176359, 342.22088, 32.949801)" fill="none" stroke-linejoin="miter" d="M -0.00019757 -0.0024846 L 424.249855 -0.0025027 L 424.249873 424.24755 L -0.000179472 424.247568 Z M -0.00019757 -0.0024846 " stroke="#ffbd59" stroke-width="14" stroke-opacity="1" stroke-miterlimit="4"/><path stroke-linecap="butt" transform="matrix(0.176359, 0.72897, -0.72897, 0.176359, 342.22088, 32.949801)" fill="none" stroke-linejoin="miter" d="M -0.00019757 -0.0024846 L 424.249855 -0.0025027 L 424.249873 424.24755 L -0.000179472 424.247568 Z M -0.00019757 -0.0024846 " stroke="#ffbd59" stroke-width="14" stroke-opacity="1" stroke-miterlimit="4"/></g></g></g></svg>