<svg xmlns="http://www.w3.org/2000/svg" xmlns:xlink="http://www.w3.org/1999/xlink" width="5" zoomAndPan="magnify" viewBox="0 0 3.75 3.75" height="5" preserveAspectRatio="xMidYMid meet" version="1.0"><defs><clipPath id="b633c3c3e8"><path d="M 0 0.00390625 L 3.128906 0.00390625 L 3.128906 3.390625 L 0 3.390625 Z M 0 0.00390625 " clip-rule="nonzero"/></clipPath><clipPath id="af5a88a739"><path d="M 3.128906 1.691406 L 0 3.382812 L 0 0.00390625 Z M 3.128906 1.691406 " clip-rule="nonzero"/></clipPath><clipPath id="0a774f4343"><path d="M 0 0.00390625 L 3.128906 0.00390625 L 3.128906 3.390625 L 0 3.390625 Z M 0 0.00390625 " clip-rule="nonzero"/></clipPath><clipPath id="e480d8ab9b"><path d="M 3.128906 1.691406 L 0 3.382812 L 0 0.00390625 Z M 3.128906 1.691406 " clip-rule="nonzero"/></clipPath><clipPath id="5ee5efd3db"><rect x="0" width="4" y="0" height="4"/></clipPath><clipPath id="de806b1409"><path d="M 0 0.00390625 L 3.128906 0.00390625 L 3.128906 3.390625 L 0 3.390625 Z M 0 0.00390625 " clip-rule="nonzero"/></clipPath><clipPath id="273a052ade"><path d="M 3.128906 1.691406 L 0 3.382812 L 0 0.00390625 Z M 3.128906 1.691406 " clip-rule="nonzero"/></clipPath><clipPath id="238d76c092"><rect x="0" width="4" y="0" height="4"/></clipPath></defs><g clip-path="url(#b633c3c3e8)"><g clip-path="url(#af5a88a739)"><g transform="matrix(1, 0, 0, 1, 0, 0)"><g clip-path="url(#5ee5efd3db)"><g clip-path="url(#0a774f4343)"><g clip-path="url(#e480d8ab9b)"><path fill="#ffbd59" d="M 3.128906 0.00390625 L 3.128906 3.378906 L -0.00390625 3.378906 L -0.00390625 0.00390625 Z M 3.128906 0.00390625 " fill-opacity="1" fill-rule="nonzero"/></g></g></g></g><g transform="matrix(1, 0, 0, 1, 0, 0)"><g clip-path="url(#238d76c092)"><g clip-path="url(#de806b1409)"><g clip-path="url(#273a052ade)"><path fill="#ffbd59" d="M 3.128906 0.00390625 L 3.128906 3.378906 L -0.00390625 3.378906 L -0.00390625 0.00390625 Z M 3.128906 0.00390625 " fill-opacity="1" fill-rule="nonzero"/></g></g></g></g></g></g></svg>