<?xml version="1.0" encoding="UTF-8"?>
<svg id="Calque_1" data-name="Calque 1" xmlns="http://www.w3.org/2000/svg" viewBox="0 0 512 512">
  <defs>
    <style>
      .cls-1 {
        fill: #fff;
        stroke-width: 0px;
      }
    </style>
  </defs>
  <path class="cls-1" d="M48,256c0-114.88,93.12-208,208-208s208,93.12,208,208-93.12,208-208,208S48,370.88,48,256ZM512,256C512,114.62,397.38,0,256,0S0,114.62,0,256s114.62,256,256,256,256-114.62,256-256ZM217.4,376.9c4.2,4.5,10.1,7.1,16.3,7.1,12.3,0,22.3-10,22.3-22.3v-57.7h96c17.7,0,32-14.3,32-32v-32c0-17.7-14.3-32-32-32h-96v-57.7c0-12.3-10-22.3-22.3-22.3-6.2,0-12.1,2.6-16.3,7.1l-99.9,107.1c-3.5,3.8-5.5,8.7-5.5,13.8s2,10.1,5.5,13.8l99.9,107.1Z"/>
</svg>